<svg id="Layer_1" data-name="Layer 1" xmlns="http://www.w3.org/2000/svg" viewBox="0 0 50 50"><defs><style>.cls-1{fill:#eb524f;}.cls-2{fill:#fff;}.cls-3{fill:#e3b98c;}.cls-4{fill:#f2c895;}.cls-5{fill:#291112;}.cls-6{fill:#2d2932;}</style></defs><title>default pp</title><circle class="cls-1" cx="25.14" cy="25.02" r="25.02"/><path class="cls-2" d="M30.66,31.73s-.52,13.74-5.48,13.63S19.7,31.44,19.7,31.44l1.39-6.9h8Z"/><path class="cls-3" d="M30.66,31.73s-.64,1.59-5.6,1.48-5.36-1.77-5.36-1.77l1.39-6.9h8Z"/><path class="cls-4" d="M35.86,17c-.17-1.64-1-2.74-2.06-2.62l-.12,0A8.86,8.86,0,0,0,33,11.61a9.51,9.51,0,0,0-8.16-5.39c-2.73,0-6.49,2.41-8.11,5.65a7.74,7.74,0,0,0-.7,2.56,1,1,0,0,0-.17,0c-1.09-.12-1.88,1-2.05,2.62a2.67,2.67,0,0,0,.57,2c.46.67.18,1.51,1.09,1.6a.88.88,0,0,0,.56-.11c0,.13,0,.25,0,.38,0,3.26,6.78,7.91,8.82,7.91s8.83-4.48,8.83-7.91v-.34a1,1,0,0,0,.49.07c.91-.09.63-.93,1.09-1.6A2.67,2.67,0,0,0,35.86,17Z"/><path class="cls-5" d="M15.39,14.18c.58.23.75,5.18.75,5.18l.83,0s-.63-5.23.79-6.69c1.94-2,2.77.51,6.63.57,4.28.08,4.57-2.32,6.71-.71s1.82,7.06,1.82,7.06l.65-.2s0-4.7.72-5.18-.07-6.41-1.57-8a11.39,11.39,0,0,0-7.9-3.28,11.24,11.24,0,0,0-8.37,3.28C15,7.86,14.81,14,15.39,14.18Z"/><path class="cls-2" d="M35,39.69h.33l.19,6.69a18.46,18.46,0,0,0,6.36-3.6,14.63,14.63,0,0,0-3.42-8.73C37,32.51,33.59,32,31.64,31c-.58-.31-.67-1.5-1.3-1.73-.78,2.48-2,18.5-5.28,18.5C22,47.75,19.93,31.5,20,29c-.62.21-1.31,1.39-1.89,1.67-2.17,1-5.91,1.89-7.37,3.53-1.9,2.15-2.2,5.29-2.43,8.56,0,0,1.77,2.54,6.81,4.15l.2-7.24h.32l.21,7.46a30.77,30.77,0,0,0,8.44,1.06,33.22,33.22,0,0,0,10.52-1.58Z"/><path class="cls-6" d="M34.91,41.9s-3-6.2-.9-10A12.87,12.87,0,0,1,31.64,31c-.58-.31-.67-1.5-1.3-1.73-.78,2.48-3.19,18.07-5.13,18.07C22.54,47.32,19.93,31.5,20,29c-.62.21-1.31,1.39-1.89,1.67-.78.36-1.21.51-2.21.88C19,37,15.69,42.4,15.69,42.4l.13,4.75a30.77,30.77,0,0,0,8.44,1.06,33.22,33.22,0,0,0,10.52-1.58Z"/><path class="cls-6" d="M26.46,35.32a3.41,3.41,0,0,1-2.57,0,3.74,3.74,0,0,1,0-2.48c.27-.54,2.22-.42,2.57,0A2.91,2.91,0,0,1,26.46,35.32Z"/><polygon class="cls-6" points="27.35 47.32 26.25 34.83 23.95 34.83 23.01 47.32 27.35 47.32"/><rect class="cls-2" x="28.03" y="43.11" width="5.24" height="1.5"/></svg>